# xmcd
#
# Track frame offsets:
#	150
#	8370
#	18488
#	28250
#	37063
#	45025
#	56588
#	61923
#	72975
#	81450
#	88288
#	97338
#	105178
#	112663
#	123448
#	135493
#	145133
#	152273
#	160633
#	167213
#	176625
#	182958
#	190280
#	199013
#	209675
#
# Disc length: 2892 seconds
#
# Revision: 1
# Processed by: cddbd v1.5.1PL0 Copyright (c) Steve Scherf et al.
# Submitted via: CDex 1.50Beta5
#
DISCID=520b4a19
DTITLE=Various Artist - にこにこぶん ベスト50
DYEAR=1900
DGENRE=(Doyo)
TTITLE0=ピクニック・マーチ
TTITLE1=ぴかぴかマーチ
TTITLE2=ねえ青空さん
TTITLE3=青空にらくがき
TTITLE4=緑っていいね
TTITLE5=のんびり・のびのび
TTITLE6=あしたいい日にな〜れ
TTITLE7=元気でね
TTITLE8=あそべあそべ
TTITLE9=ぴょんぴょんカンガルー
TTITLE10=シュビ・ドゥビ・パパヤ
TTITLE11=あつまれ!ファンファンファン
TTITLE12=北風なんかへっちゃらさ
TTITLE13=ともだちってなんだろな
TTITLE14=風がひいているバイオリン
TTITLE15=風のアコーディオン
TTITLE16=ふうふうラーメン
TTITLE17=お風呂が好きなスパゲッティー
TTITLE18=ハンバーグ・ジュン!
TTITLE19=ごめんねピーマン
TTITLE20=なまムギなまゴメなまタマゴ
TTITLE21=いっぴきでもサンマ
TTITLE22=ハヒフホ・カレー
TTITLE23=夕焼けはママのにおい
TTITLE24=さよならマーチ
EXTD=
EXTT0=
EXTT1=
EXTT2=
EXTT3=
EXTT4=
EXTT5=
EXTT6=
EXTT7=
EXTT8=
EXTT9=
EXTT10=
EXTT11=
EXTT12=
EXTT13=
EXTT14=
EXTT15=
EXTT16=
EXTT17=
EXTT18=
EXTT19=
EXTT20=
EXTT21=
EXTT22=
EXTT23=
EXTT24=
PLAYORDER=
